<svg xmlns="http://www.w3.org/2000/svg" viewBox="0 0 560 440" font-family="'Segoe UI', 'Helvetica Neue', Arial, sans-serif">
  <defs>
    <style>
      .row-label { font-size: 11px; font-weight: 700; text-transform: uppercase; letter-spacing: 1.2px; }
      .pill { rx: 14; ry: 14; }
      .pill-text { font-size: 11.5px; font-weight: 500; text-anchor: middle; dominant-baseline: central; }
    </style>
  </defs>

  <!-- Dashboard (right side, spanning Services to KMods/Drivers) -->
  <rect x="470" y="12" width="70" height="242" rx="14" ry="14" fill="#e8ecf4" stroke="#b0bcd4"/>
  <text x="505" y="133" class="pill-text" fill="#3d4f6e" writing-mode="tb" font-size="12" font-weight="600">Dashboard</text>

  <!-- Agents  y=12 -->
  <text x="16" y="28" class="row-label" fill="#7b5ea7">Agents</text>
  <rect x="110" y="12" width="160" height="30" class="pill" fill="#f0eaf8" stroke="#c9b1e0"/>
  <text x="190" y="27" class="pill-text" fill="#5b3d8a">Gura (PAR loop)</text>
  <rect x="278" y="12" width="110" height="30" class="pill" fill="#f0eaf8" stroke="#c9b1e0"/>
  <text x="333" y="27" class="pill-text" fill="#5b3d8a">TinyGura x N</text>

  <!-- Shell  y=56 -->
  <text x="16" y="72" class="row-label" fill="#3a75b0">Shell</text>
  <rect x="110" y="56" width="340" height="30" class="pill" fill="#e3f0fc" stroke="#a3c9ef"/>
  <text x="280" y="71" class="pill-text" fill="#2a5f8f">RestrictedPython sandbox</text>

  <!-- Services row 1  y=100 -->
  <text x="16" y="116" class="row-label" fill="#2d8a5e">Services</text>
  <rect x="110" y="100" width="80" height="30" class="pill" fill="#e6f5ee" stroke="#9dd6b8"/>
  <text x="150" y="115" class="pill-text" fill="#1e6b45">Memory</text>
  <rect x="198" y="100" width="62" height="30" class="pill" fill="#e6f5ee" stroke="#9dd6b8"/>
  <text x="229" y="115" class="pill-text" fill="#1e6b45">Cron</text>
  <rect x="268" y="100" width="78" height="30" class="pill" fill="#e6f5ee" stroke="#9dd6b8"/>
  <text x="307" y="115" class="pill-text" fill="#1e6b45">Learner</text>
  <rect x="354" y="100" width="72" height="30" class="pill" fill="#e6f5ee" stroke="#9dd6b8"/>
  <text x="390" y="115" class="pill-text" fill="#1e6b45">Logger</text>

  <!-- Services row 2  y=136 -->
  <rect x="110" y="136" width="68" height="30" class="pill" fill="#e6f5ee" stroke="#9dd6b8"/>
  <text x="144" y="151" class="pill-text" fill="#1e6b45">Usage</text>
  <rect x="186" y="136" width="88" height="30" class="pill" fill="#e6f5ee" stroke="#9dd6b8"/>
  <text x="230" y="151" class="pill-text" fill="#1e6b45">Calendar</text>
  <rect x="282" y="136" width="95" height="30" class="pill" fill="#e6f5ee" stroke="#9dd6b8"/>
  <text x="329" y="151" class="pill-text" fill="#1e6b45">GuraVerse</text>

  <!-- Kernel row 1  y=184 -->
  <text x="16" y="200" class="row-label" fill="#a68a2a">Kernel</text>
  <rect x="110" y="184" width="105" height="30" class="pill" fill="#fef6e4" stroke="#e8d49c"/>
  <text x="162" y="199" class="pill-text" fill="#7a6520">ProcessMgr</text>
  <rect x="223" y="184" width="120" height="30" class="pill" fill="#fef6e4" stroke="#e8d49c"/>
  <text x="283" y="199" class="pill-text" fill="#7a6520">CapabilityMgr</text>
  <rect x="351" y="184" width="100" height="30" class="pill" fill="#fef6e4" stroke="#e8d49c"/>
  <text x="401" y="199" class="pill-text" fill="#7a6520">ModuleMgr</text>

  <!-- Kernel row 2  y=220 -->
  <rect x="110" y="220" width="105" height="30" class="pill" fill="#fef6e4" stroke="#e8d49c"/>
  <text x="162" y="235" class="pill-text" fill="#7a6520">IPC (NATS)</text>

  <!-- KMods / Drivers row 1  y=268 -->
  <text x="16" y="284" class="row-label" fill="#b06a2a">KMods /</text>
  <text x="16" y="297" class="row-label" fill="#b06a2a">Drivers</text>
  <rect x="110" y="268" width="62" height="30" class="pill" fill="#fdeee4" stroke="#e8b99c"/>
  <text x="141" y="283" class="pill-text" fill="#8a4a1a">Grok</text>
  <rect x="180" y="268" width="88" height="30" class="pill" fill="#fdeee4" stroke="#e8b99c"/>
  <text x="224" y="283" class="pill-text" fill="#8a4a1a">Qwen3-VL</text>
  <rect x="276" y="268" width="68" height="30" class="pill" fill="#fdeee4" stroke="#e8b99c"/>
  <text x="310" y="283" class="pill-text" fill="#8a4a1a">Audio</text>
  <rect x="352" y="268" width="82" height="30" class="pill" fill="#fdeee4" stroke="#e8b99c"/>
  <text x="393" y="283" class="pill-text" fill="#8a4a1a">Terminal</text>

  <!-- KMods / Drivers row 2  y=304 -->
  <rect x="110" y="304" width="78" height="30" class="pill" fill="#fdeee4" stroke="#e8b99c"/>
  <text x="149" y="319" class="pill-text" fill="#8a4a1a">Discord</text>
  <rect x="196" y="304" width="68" height="30" class="pill" fill="#fdeee4" stroke="#e8b99c"/>
  <text x="230" y="319" class="pill-text" fill="#8a4a1a">Phone</text>

  <!-- Infra  y=352 -->
  <text x="16" y="368" class="row-label" fill="#6a7080">Infra</text>
  <rect x="110" y="352" width="72" height="30" class="pill" fill="#ecedf1" stroke="#b8bcc6"/>
  <text x="146" y="367" class="pill-text" fill="#4a4f5a">Milvus</text>
  <rect x="190" y="352" width="68" height="30" class="pill" fill="#ecedf1" stroke="#b8bcc6"/>
  <text x="224" y="367" class="pill-text" fill="#4a4f5a">SQLite</text>
  <rect x="266" y="352" width="72" height="30" class="pill" fill="#ecedf1" stroke="#b8bcc6"/>
  <text x="302" y="367" class="pill-text" fill="#4a4f5a">RustFS</text>
  <rect x="346" y="352" width="62" height="30" class="pill" fill="#ecedf1" stroke="#b8bcc6"/>
  <text x="377" y="367" class="pill-text" fill="#4a4f5a">vLLM</text>
</svg>
